# xmcd
#
# Track frame offsets:
#	150
#	13225
#	27392
#	41450
#	57497
#	72152
#	85520
#	97222
#	106792
#	119910
#	133707
#	146875
#	161627
#	174572
#	183727
#	195172
#	209165
#	221442
#	235292
#	246545
#
# Disc length: 3480 seconds
#
# Revision: 0
# Processed by: cddbd v1.5.2PL0 Copyright (c) Steve Scherf et al.
# Submitted via: EasyCDDAExtractor 10.0.2.1
#
DISCID=360d9614
DTITLE=Francisco Charro Avitia - Mexicanisimo
DYEAR=2005
DGENRE=Ranchera
TTITLE0=Maquina 501
TTITLE1=Veinte Anos
TTITLE2=El Muchacho Alegre
TTITLE3=Corrido De Santa Amalia
TTITLE4=El Bandolero
TTITLE5=Los Gavilanes
TTITLE6=El Dorado De Villa
TTITLE7=Por Una Mujer Casada
TTITLE8=Bala Perdida
TTITLE9=Cuando Mexico Canta
TTITLE10=El General
TTITLE11=Corrido De Cananea
TTITLE12=Pajarillo De La Sierra
TTITLE13=La Flecha
TTITLE14=La Canelera
TTITLE15=El Aguila Negra
TTITLE16=El Ranchero Afamado
TTITLE17=Durango, Durango
TTITLE18=El Cenzontle
TTITLE19=Los Camperos
EXTD=
EXTT0=
EXTT1=
EXTT2=
EXTT3=
EXTT4=
EXTT5=
EXTT6=
EXTT7=
EXTT8=
EXTT9=
EXTT10=
EXTT11=
EXTT12=
EXTT13=
EXTT14=
EXTT15=
EXTT16=
EXTT17=
EXTT18=
EXTT19=
PLAYORDER=
